<?xml version="1.0" standalone="no"?>
<!DOCTYPE svg PUBLIC "-//W3C//DTD SVG 20010904//EN"
 "http://www.w3.org/TR/2001/REC-SVG-20010904/DTD/svg10.dtd">
<svg version="1.0" xmlns="http://www.w3.org/2000/svg"
 width="876.000000pt" height="876.000000pt" viewBox="0 0 876.000000 876.000000"
 preserveAspectRatio="xMidYMid meet">
<metadata>
Created by potrace 1.14, written by Peter Selinger 2001-2017
</metadata>
<g transform="translate(0.000000,876.000000) scale(0.100000,-0.100000)"
fill="#000000" stroke="none">
<path d="M3930 8013 c-310 -516 -3368 -5608 -3426 -5704 -3 -5 1884 -1128
3694 -2199 102 -60 179 -100 190 -98 9 3 532 311 1162 684 630 374 1495 886
1922 1139 591 350 777 464 774 477 -2 9 -657 1104 -1456 2435 -799 1330 -1667
2775 -1929 3210 -262 436 -479 793 -482 793 -3 0 -205 -332 -449 -737z m565
-2068 c172 -45 305 -179 350 -352 65 -249 -94 -511 -350 -578 -251 -65 -513
94 -580 350 -89 343 237 669 580 580z m2316 -1807 c-5 -13 -203 -518 -441
-1123 -238 -605 -446 -1135 -462 -1177 l-30 -78 -526 -2 -526 -3 -113 -445
c-62 -245 -161 -635 -220 -867 -60 -233 -110 -423 -113 -423 -3 0 -54 190
-113 423 -59 232 -158 622 -220 867 l-113 445 -513 5 -513 5 -478 1182 c-262
650 -480 1189 -483 1198 -6 13 235 15 2433 15 l2440 0 -9 -22z"/>
<path d="M3500 3187 c-49 -16 -133 -102 -148 -153 -28 -94 -8 -169 63 -239 51
-52 102 -75 165 -75 124 0 240 116 240 240 0 63 -23 114 -75 165 -70 71 -152
91 -245 62z"/>
<path d="M4300 3187 c-49 -16 -133 -102 -148 -153 -28 -94 -8 -169 63 -239 51
-52 102 -75 165 -75 124 0 240 116 240 240 0 63 -23 114 -75 165 -70 71 -152
91 -245 62z"/>
<path d="M5180 3187 c-49 -16 -133 -102 -148 -153 -28 -94 -8 -169 63 -239 51
-52 102 -75 165 -75 124 0 240 116 240 240 0 63 -23 114 -75 165 -70 71 -152
91 -245 62z"/>
</g>
</svg>
